<?xml version="1.0" encoding="UTF-8" standalone="no"?>
<!-- Created with Inkscape (http://www.inkscape.org/) -->

<svg
   width="256"
   height="256"
   viewBox="0 0 256 256"
   id="svg2"
   version="1.1"
   inkscape:version="1.2.2 (b0a8486541, 2022-12-01)"
   sodipodi:docname="lliurex-client-register.svg"
   xmlns:inkscape="http://www.inkscape.org/namespaces/inkscape"
   xmlns:sodipodi="http://sodipodi.sourceforge.net/DTD/sodipodi-0.dtd"
   xmlns="http://www.w3.org/2000/svg"
   xmlns:svg="http://www.w3.org/2000/svg"
   xmlns:rdf="http://www.w3.org/1999/02/22-rdf-syntax-ns#"
   xmlns:cc="http://creativecommons.org/ns#"
   xmlns:dc="http://purl.org/dc/elements/1.1/">
  <defs
     id="defs4">
    <linearGradient
       id="rect3438-6-0-6-7-2_60_-61"
       gradientUnits="userSpaceOnUse"
       x1="-461.39209"
       y1="370.95309"
       x2="-461.39209"
       y2="666.9834"
       gradientTransform="matrix(0.9954,0,0,-0.9999,609.2166,666.5718)">
      <stop
         offset="0"
         style="stop-color:#000000"
         id="stop29032" />
      <stop
         offset="1"
         style="stop-color:#000000;stop-opacity:0.5882"
         id="stop29034" />
    </linearGradient>
    <linearGradient
       id="rect3438-6-0-1-1_60_-60"
       gradientUnits="userSpaceOnUse"
       x1="-456.38821"
       y1="371.95309"
       x2="-456.38821"
       y2="668.63483"
       gradientTransform="matrix(0.9867,0,0,-0.9918,600.2651,662.6824)">
      <stop
         offset="0"
         style="stop-color:#000000"
         id="stop29038" />
      <stop
         offset="1"
         style="stop-color:#000000;stop-opacity:0.5882"
         id="stop29040" />
    </linearGradient>
  </defs>
  <sodipodi:namedview
     id="base"
     pagecolor="#ffffff"
     bordercolor="#666666"
     borderopacity="1.0"
     inkscape:pageopacity="0.0"
     inkscape:pageshadow="2"
     inkscape:zoom="0.9899495"
     inkscape:cx="54.548237"
     inkscape:cy="72.225906"
     inkscape:document-units="px"
     inkscape:current-layer="g962"
     showgrid="false"
     units="px"
     showguides="true"
     inkscape:guide-bbox="true"
     inkscape:snap-intersection-paths="false"
     inkscape:snap-midpoints="true"
     inkscape:window-width="1829"
     inkscape:window-height="838"
     inkscape:window-x="0"
     inkscape:window-y="0"
     inkscape:window-maximized="1"
     inkscape:pagecheckerboard="0"
     inkscape:showpageshadow="2"
     inkscape:deskcolor="#d1d1d1">
    <sodipodi:guide
       position="128.92857,237.85714"
       orientation="0,1"
       id="guide4147"
       inkscape:locked="false" />
    <sodipodi:guide
       position="18.214286,162.14286"
       orientation="1,0"
       id="guide4149"
       inkscape:locked="false" />
    <sodipodi:guide
       position="237.85714,66.785714"
       orientation="1,0"
       id="guide4151"
       inkscape:locked="false" />
    <sodipodi:guide
       position="198.21429,17.5"
       orientation="0,1"
       id="guide4153"
       inkscape:locked="false" />
  </sodipodi:namedview>
  <metadata
     id="metadata7">
    <rdf:RDF>
      <cc:Work
         rdf:about="">
        <dc:format>image/svg+xml</dc:format>
        <dc:type
           rdf:resource="http://purl.org/dc/dcmitype/StillImage" />
      </cc:Work>
    </rdf:RDF>
  </metadata>
  <g
     inkscape:label="Capa 1"
     inkscape:groupmode="layer"
     id="layer1"
     transform="translate(0,-796.36216)">
    <g
       id="g29119"
       transform="matrix(0.74931131,0,0,0.74931131,16.298157,815.16006)">
      <g
         id="g962"
         transform="matrix(1.523394,0,0,1.523394,-80.067711,-67.2529)">
        <g
           id="g621"
           transform="matrix(0.41526505,0,0,0.41526505,44.106572,56.475729)">
          <g
             id="g2369">
            <path
               d="m 72.841,0 h 366.325 c 4.812,0 8.748,3.939 8.748,8.749 v 239.007 c 0,4.811 -3.938,8.749 -8.748,8.749 H 72.841 c -4.811,0 -8.749,-3.936 -8.749,-8.749 V 8.749 C 64.092,3.937 68.028,0 72.841,0 Z"
               id="path359" />
            <path
               fill="#6cc0ef"
               d="M 74.774,12.465 H 437.231 V 244.041 H 74.774 Z"
               id="path361" />
            <path
               fill="#7bc6f1"
               d="M 78.423,12.466 H 437.232 V 240.39 C 297.831,230.88 182.417,131.919 78.423,12.466 Z"
               id="path363" />
            <path
               fill="#808080"
               d="m 2.022,388.238 509.172,0.513 c 2.108,6.655 -5.17,12.909 -10.572,12.605 H 12.92 C 6.006,401.599 0.198,395.193 2.022,388.238 Z"
               id="path365" />
            <path
               fill="#cbcbcb"
               d="M 511.627,384.337 447.307,256.563 64.268,256.513 0.339,383.824 c -1.824,6.955 3.984,13.361 10.898,13.118 h 489.818 c 5.402,0.304 12.68,-5.951 10.572,-12.605 z"
               id="path367" />
            <path
               fill="#fdfdfd"
               d="m 81.676,271.13 h 348.937 c 4.279,0 5.928,3.928 7.78,7.782 l 21.475,44.744 c 1.849,3.851 -3.51,7.783 -7.782,7.783 H 59.926 c -4.271,0 -9.657,-3.932 -7.783,-7.783 l 21.754,-44.744 c 1.872,-3.851 3.501,-7.782 7.779,-7.782 z"
               id="path369" />
            <path
               fill="#a5a5a5"
               d="m 199.64,340.192 h 112.722 c 4.489,0 7.51,3.722 8.158,8.156 l 4.712,32.303 c 0.649,4.434 -3.675,8.158 -8.152,8.158 H 194.925 c -4.475,0 -8.8,-3.716 -8.152,-8.158 l 4.712,-32.303 c 0.648,-4.44 3.669,-8.156 8.155,-8.156 z m 116.505,-24.474 c 1.219,0 1.936,1.016 2.165,2.191 l 0.778,4.022 c 0.227,1.173 -1.051,2.188 -2.259,2.188 H 162.445 c -1.219,0 -1.898,-0.982 -1.509,-2.188 l 1.296,-4.022 c 0.389,-1.206 1.7,-2.191 2.919,-2.191 z m -35.477,-12.097 h -19.825 c -1.217,0 -2.169,0.987 -2.113,2.187 l 0.184,4.026 c 0.056,1.203 1.096,2.188 2.315,2.188 h 19.826 a 2.089,2.089 0 0 0 2.11,-2.188 l -0.185,-4.026 c -0.052,-1.202 -1.101,-2.187 -2.312,-2.187 z m -1.68,-12.694 h -18.145 c -1.22,0 -2.169,0.985 -2.113,2.188 l 0.184,4.025 c 0.056,1.206 1.096,2.188 2.315,2.188 h 18.145 c 1.217,0 2.166,-0.982 2.111,-2.188 l -0.185,-4.025 c -0.055,-1.203 -1.095,-2.188 -2.312,-2.188 z m 67.86,24.791 h -18.145 c -1.217,0 -1.895,0.985 -1.507,2.191 l 1.297,4.022 c 0.389,1.206 1.7,2.188 2.919,2.188 h 18.142 c 1.22,0 1.898,-0.982 1.51,-2.188 l -1.297,-4.022 c -0.389,-1.206 -1.7,-2.191 -2.919,-2.191 z m 30.673,0 h -18.142 c -1.219,0 -1.898,0.985 -1.509,2.191 l 1.296,4.022 c 0.389,1.206 1.7,2.188 2.919,2.188 h 18.145 c 1.217,0 1.896,-0.982 1.507,-2.188 l -1.297,-4.022 c -0.386,-1.206 -1.699,-2.191 -2.919,-2.191 z m 33.076,0 h -18.142 c -1.219,0 -1.898,0.985 -1.509,2.191 l 1.296,4.022 c 0.39,1.206 1.7,2.188 2.919,2.188 h 18.146 c 1.216,0 1.895,-0.982 1.506,-2.188 l -1.297,-4.022 c -0.389,-1.206 -1.699,-2.191 -2.919,-2.191 z m 30.618,0 h -18.142 c -1.219,0 -1.898,0.985 -1.509,2.191 l 1.297,4.022 c 0.388,1.206 1.699,2.188 2.918,2.188 h 18.145 c 1.217,0 1.896,-0.982 1.507,-2.188 l -1.297,-4.022 c -0.386,-1.206 -1.699,-2.191 -2.919,-2.191 z m -128.56,-12.591 h -20.132 c -1.211,0 -2.044,0.987 -1.837,2.188 l 0.692,4.022 c 0.207,1.2 1.371,2.191 2.588,2.191 h 20.131 c 1.22,0 2.042,-0.985 1.838,-2.191 l -0.69,-4.022 c -0.204,-1.206 -1.382,-2.188 -2.59,-2.188 z m 31.12,0 h -18.146 c -1.216,0 -1.895,0.982 -1.506,2.188 l 1.297,4.022 c 0.386,1.206 1.699,2.191 2.919,2.191 h 18.142 c 1.219,0 1.898,-0.985 1.509,-2.191 l -1.296,-4.022 c -0.389,-1.206 -1.7,-2.188 -2.919,-2.188 z m 30.722,0 h -18.145 c -1.219,0 -1.898,0.982 -1.509,2.188 l 1.297,4.022 c 0.389,1.206 1.702,2.191 2.919,2.191 h 18.145 c 1.217,0 1.895,-0.985 1.509,-2.191 l -1.299,-4.022 c -0.387,-1.206 -1.7,-2.188 -2.917,-2.188 z m 30.891,0 h -18.144 c -1.22,0 -1.898,0.982 -1.51,2.188 l 1.297,4.022 c 0.389,1.206 1.702,2.191 2.919,2.191 h 18.145 c 1.217,0 1.895,-0.985 1.509,-2.191 l -1.299,-4.022 c -0.387,-1.206 -1.7,-2.188 -2.917,-2.188 z m 29.987,0 H 417.23 c -1.22,0 -1.896,0.982 -1.509,2.188 l 1.296,4.022 c 0.389,1.206 1.702,2.191 2.919,2.191 h 18.145 c 1.22,0 1.896,-0.985 1.509,-2.191 l -1.296,-4.022 c -0.389,-1.206 -1.703,-2.188 -2.919,-2.188 z m -125.631,-12.2 h -18.948 c -1.211,0 -2.044,0.99 -1.837,2.188 l 0.692,4.025 c 0.207,1.2 1.371,2.188 2.588,2.188 h 18.948 c 1.219,0 2.041,-0.982 1.837,-2.188 l -0.689,-4.025 c -0.205,-1.203 -1.383,-2.188 -2.591,-2.188 z m 29.843,0 h -18.145 c -1.217,0 -1.896,0.985 -1.507,2.188 l 1.297,4.025 c 0.389,1.206 1.699,2.188 2.919,2.188 h 18.142 c 1.22,0 1.898,-0.982 1.509,-2.188 l -1.297,-4.025 c -0.388,-1.203 -1.699,-2.188 -2.918,-2.188 z m 30.435,0 h -18.144 c -1.217,0 -1.896,0.985 -1.507,2.188 l 1.297,4.025 c 0.386,1.206 1.699,2.188 2.916,2.188 h 18.145 c 1.219,0 1.898,-0.982 1.509,-2.188 l -1.297,-4.025 c -0.388,-1.203 -1.699,-2.188 -2.919,-2.188 z m 30.489,0 h -18.143 c -1.219,0 -1.898,0.985 -1.508,2.188 l 1.296,4.025 c 0.389,1.206 1.7,2.188 2.919,2.188 h 18.145 c 1.217,0 1.896,-0.982 1.506,-2.188 l -1.296,-4.025 c -0.386,-1.203 -1.7,-2.188 -2.919,-2.188 z m 29.362,0 h -18.144 c -1.22,0 -1.896,0.985 -1.51,2.188 l 1.297,4.025 c 0.389,1.206 1.702,2.188 2.919,2.188 h 18.145 c 1.219,0 1.895,-0.982 1.509,-2.188 l -1.297,-4.025 c -0.388,-1.203 -1.702,-2.188 -2.919,-2.188 z M 306.646,278.449 h -18.145 c -1.217,0 -2.045,0.985 -1.838,2.188 l 0.693,4.025 c 0.207,1.205 1.371,2.187 2.588,2.187 h 18.145 c 1.219,0 2.044,-0.982 1.837,-2.187 l -0.69,-4.025 c -0.207,-1.203 -1.371,-2.188 -2.59,-2.188 z m 29.288,0 h -18.143 c -1.219,0 -1.898,0.985 -1.508,2.188 l 1.296,4.025 c 0.389,1.205 1.7,2.187 2.919,2.187 h 18.145 c 1.217,0 1.896,-0.982 1.506,-2.187 l -1.296,-4.025 c -0.386,-1.203 -1.7,-2.188 -2.919,-2.188 z m 29.815,0 h -18.145 c -1.22,0 -1.898,0.985 -1.509,2.188 l 1.297,4.025 c 0.389,1.205 1.702,2.187 2.918,2.187 h 18.145 c 1.217,0 1.896,-0.982 1.51,-2.187 l -1.3,-4.025 c -0.386,-1.203 -1.699,-2.188 -2.916,-2.188 z m 29.589,0 h -18.145 c -1.22,0 -1.898,0.985 -1.509,2.188 l 1.297,4.025 c 0.389,1.205 1.702,2.187 2.918,2.187 h 18.145 c 1.217,0 1.896,-0.982 1.51,-2.187 l -1.3,-4.025 c -0.386,-1.203 -1.699,-2.188 -2.916,-2.188 z m 28.391,0 h -18.144 c -1.22,0 -1.896,0.985 -1.51,2.188 l 1.297,4.025 c 0.389,1.205 1.702,2.187 2.919,2.187 h 18.145 c 1.219,0 1.895,-0.982 1.509,-2.187 l -1.297,-4.025 c -0.389,-1.203 -1.702,-2.188 -2.919,-2.188 z m -144.741,0 h -18.145 c -1.22,0 -2.169,0.985 -2.113,2.188 l 0.184,4.025 c 0.056,1.205 1.096,2.187 2.315,2.187 h 18.145 c 1.217,0 2.166,-0.982 2.111,-2.187 l -0.185,-4.025 c -0.055,-1.203 -1.095,-2.188 -2.312,-2.188 z m -144.51,37.269 h 18.143 c 1.219,0 1.898,0.985 1.509,2.191 l -1.297,4.022 c -0.389,1.206 -1.7,2.188 -2.919,2.188 h -18.145 c -1.217,0 -1.895,-0.982 -1.506,-2.188 l 1.297,-4.022 c 0.386,-1.206 1.699,-2.191 2.918,-2.191 z m -33.076,0 h 18.142 c 1.22,0 1.898,0.985 1.51,2.191 l -1.297,4.022 c -0.389,1.206 -1.699,2.188 -2.919,2.188 H 98.693 c -1.217,0 -1.895,-0.982 -1.507,-2.188 l 1.297,-4.022 c 0.389,-1.206 1.7,-2.191 2.919,-2.191 z m -30.618,0 h 18.143 c 1.219,0 1.898,0.985 1.509,2.191 l -1.297,4.022 c -0.389,1.206 -1.7,2.188 -2.919,2.188 H 68.075 c -1.217,0 -1.896,-0.982 -1.506,-2.188 l 1.296,-4.022 c 0.386,-1.206 1.7,-2.191 2.919,-2.191 z m 160.307,-12.591 h 20.217 c 1.217,0 2.114,0.985 1.998,2.188 l -0.398,4.022 c -0.115,1.203 -1.213,2.191 -2.43,2.191 h -20.217 c -1.214,0 -2.116,-0.985 -1.998,-2.191 l 0.398,-4.022 c 0.118,-1.206 1.211,-2.188 2.43,-2.188 z m -31.746,0 h 18.145 c 1.217,0 2.044,0.982 1.837,2.188 l -0.692,4.022 c -0.207,1.206 -1.371,2.191 -2.588,2.191 h -18.145 c -1.219,0 -2.044,-0.985 -1.837,-2.191 l 0.689,-4.022 c 0.207,-1.206 1.371,-2.188 2.591,-2.188 z m -31.12,0 h 18.145 c 1.216,0 1.895,0.982 1.506,2.188 l -1.296,4.022 c -0.387,1.206 -1.7,2.191 -2.919,2.191 h -18.143 c -1.219,0 -1.898,-0.985 -1.509,-2.191 l 1.297,-4.022 c 0.389,-1.206 1.699,-2.188 2.919,-2.188 z m -30.723,0 h 18.145 c 1.22,0 1.898,0.982 1.509,2.188 l -1.297,4.022 c -0.389,1.206 -1.702,2.191 -2.918,2.191 h -18.145 c -1.217,0 -1.896,-0.985 -1.51,-2.191 l 1.3,-4.022 c 0.386,-1.206 1.7,-2.188 2.916,-2.188 z m -30.891,0 h 18.145 c 1.219,0 1.898,0.982 1.509,2.188 l -1.297,4.022 c -0.388,1.206 -1.702,2.191 -2.919,2.191 h -18.144 c -1.217,0 -1.896,-0.985 -1.51,-2.191 l 1.3,-4.022 c 0.386,-1.206 1.699,-2.188 2.916,-2.188 z m -29.986,0 H 94.77 c 1.219,0 1.895,0.982 1.509,2.188 l -1.297,4.022 c -0.389,1.206 -1.702,2.191 -2.919,2.191 H 73.918 c -1.219,0 -1.895,-0.985 -1.509,-2.191 l 1.297,-4.022 c 0.389,-1.206 1.702,-2.188 2.919,-2.188 z m 155.553,-12.2 h 19.13 c 1.22,0 2.114,0.988 1.998,2.188 l -0.398,4.025 c -0.115,1.203 -1.213,2.188 -2.427,2.188 h -19.133 c -1.217,0 -2.116,-0.982 -1.998,-2.188 l 0.398,-4.025 c 0.118,-1.203 1.211,-2.188 2.43,-2.188 z m -29.922,0 H 220.4 c 1.217,0 2.045,0.985 1.838,2.188 l -0.692,4.025 c -0.207,1.206 -1.372,2.188 -2.588,2.188 h -18.145 c -1.22,0 -2.045,-0.982 -1.838,-2.188 l 0.69,-4.025 c 0.207,-1.203 1.371,-2.188 2.591,-2.188 z m -29.843,0 h 18.145 c 1.217,0 1.895,0.985 1.506,2.188 l -1.296,4.025 c -0.389,1.206 -1.7,2.188 -2.919,2.188 h -18.142 c -1.22,0 -1.899,-0.982 -1.51,-2.188 l 1.297,-4.025 c 0.389,-1.203 1.699,-2.188 2.919,-2.188 z m -30.436,0 h 18.145 c 1.217,0 1.895,0.985 1.507,2.188 l -1.297,4.025 c -0.387,1.206 -1.7,2.188 -2.917,2.188 h -18.144 c -1.22,0 -1.898,-0.982 -1.51,-2.188 l 1.297,-4.025 c 0.389,-1.203 1.699,-2.188 2.919,-2.188 z m -30.488,0 h 18.142 c 1.22,0 1.898,0.985 1.509,2.188 l -1.297,4.025 c -0.389,1.206 -1.699,2.188 -2.919,2.188 h -18.145 c -1.216,0 -1.895,-0.982 -1.506,-2.188 l 1.297,-4.025 c 0.386,-1.203 1.699,-2.188 2.919,-2.188 z m -29.363,0 h 18.145 c 1.22,0 1.895,0.985 1.509,2.188 l -1.297,4.025 c -0.389,1.206 -1.702,2.188 -2.919,2.188 H 79.42 c -1.22,0 -1.896,-0.982 -1.51,-2.188 l 1.297,-4.025 c 0.389,-1.203 1.702,-2.188 2.919,-2.188 z m 151.037,-12.478 h 18.145 c 1.22,0 2.116,0.985 1.998,2.188 l -0.398,4.025 c -0.118,1.205 -1.211,2.187 -2.43,2.187 h -18.142 c -1.22,0 -2.117,-0.982 -1.998,-2.187 l 0.397,-4.025 c 0.119,-1.203 1.212,-2.188 2.428,-2.188 z m -27.809,0 h 18.145 c 1.217,0 2.044,0.985 1.837,2.188 l -0.692,4.025 c -0.207,1.205 -1.371,2.187 -2.588,2.187 h -18.145 c -1.22,0 -2.044,-0.982 -1.838,-2.187 l 0.69,-4.025 c 0.207,-1.203 1.371,-2.188 2.591,-2.188 z m -29.288,0 h 18.142 c 1.219,0 1.898,0.985 1.509,2.188 l -1.297,4.025 c -0.389,1.205 -1.699,2.187 -2.919,2.187 h -18.145 c -1.216,0 -1.895,-0.982 -1.506,-2.187 l 1.297,-4.025 c 0.386,-1.203 1.699,-2.188 2.919,-2.188 z m -29.816,0 h 18.146 c 1.219,0 1.898,0.985 1.509,2.188 l -1.297,4.025 c -0.389,1.205 -1.702,2.187 -2.919,2.187 h -18.145 c -1.217,0 -1.895,-0.982 -1.509,-2.187 l 1.299,-4.025 c 0.387,-1.203 1.7,-2.188 2.916,-2.188 z m -29.589,0 h 18.146 c 1.219,0 1.898,0.985 1.509,2.188 l -1.297,4.025 c -0.389,1.205 -1.702,2.187 -2.919,2.187 h -18.145 c -1.216,0 -1.895,-0.982 -1.509,-2.187 l 1.299,-4.025 c 0.387,-1.203 1.7,-2.188 2.916,-2.188 z m -28.391,0 h 18.145 c 1.219,0 1.895,0.985 1.509,2.188 l -1.297,4.025 c -0.388,1.205 -1.702,2.187 -2.919,2.187 H 85.564 c -1.22,0 -1.896,-0.982 -1.51,-2.187 l 1.297,-4.025 c 0.389,-1.203 1.702,-2.188 2.919,-2.188 z"
               id="path371" />
          </g>
          <g
             id="g1946"
             transform="translate(475.17474,32.867103)">
            <rect
               style="fill:#b3b3b3;stroke:#000000;stroke-width:1.2;stroke-dasharray:none;stroke-opacity:1"
               id="rect548"
               width="164.6886"
               height="140"
               x="-301.51904"
               y="22.11857"
               rx="4.6999998" />
            <circle
               style="fill:#000000;stroke-width:0.666667"
               id="path776"
               cx="-156.83044"
               cy="172.11423"
               r="10" />
            <circle
               style="fill:#000000;stroke-width:0.666667"
               id="path776-6"
               cx="-281.73779"
               cy="171.78291"
               r="10" />
            <rect
               style="fill:#000000"
               id="rect1053"
               width="4.1316695"
               height="140"
               x="-223.04083"
               y="22.11857"
               rx="4.6999998" />
            <rect
               style="fill:#000000;stroke-width:0.377964"
               id="rect1053-7"
               width="4.1316695"
               height="20"
               x="-235.70775"
               y="82.118568"
               rx="4.6999998" />
            <rect
               style="fill:#000000;stroke-width:0.534522"
               id="rect1053-7-3"
               width="4.1316695"
               height="40"
               x="-45.577087"
               y="-283.77734"
               rx="4.6999998"
               transform="rotate(-90)" />
            <rect
               style="fill:#000000;stroke-width:0.534522"
               id="rect1053-7-3-5"
               width="4.1316695"
               height="40"
               x="-55.442455"
               y="-283.77734"
               rx="4.6999998"
               transform="rotate(-90)" />
            <rect
               style="fill:#000000;stroke-width:0.377964"
               id="rect1053-7-5"
               width="4.1316695"
               height="20"
               x="-206.5117"
               y="82.118568"
               rx="4.6999998" />
            <rect
               style="fill:#000000;stroke-width:0.534522"
               id="rect1053-7-3-6"
               width="4.1316695"
               height="40"
               x="-67.050369"
               y="-283.77734"
               rx="4.6999998"
               transform="rotate(-90)" />
            <rect
               style="fill:#000000;stroke-width:0.534522"
               id="rect1053-7-3-2"
               width="4.1316695"
               height="40"
               x="-45.117683"
               y="-196.60666"
               rx="4.6999998"
               transform="rotate(-90)" />
            <rect
               style="fill:#000000;stroke-width:0.534522"
               id="rect1053-7-3-5-9"
               width="4.1316695"
               height="40"
               x="-54.983055"
               y="-196.60666"
               rx="4.6999998"
               transform="rotate(-90)" />
            <rect
               style="fill:#000000;stroke-width:0.534522"
               id="rect1053-7-3-6-1"
               width="4.1316695"
               height="40"
               x="-66.590965"
               y="-196.60666"
               rx="4.6999998"
               transform="rotate(-90)" />
          </g>
        </g>
      </g>
      <g
         display="none"
         id="Capa_2-68"
         style="display:none" />
      <g
         display="none"
         id="Capa_3-77"
         style="display:none">
        <g
           display="inline"
           id="XMLID_528_-4"
           style="display:inline">
          <g
             id="XMLID_2864_-7">
            <path
               d="m -295.115,-19.288 c -15.214,6.737 -24.612,20.724 -30.829,35.639 -7.169,17.198 -11.31,35.881 -14.992,54.089 -7.519,37.173 -10.816,76.312 -2.523,113.65 7.941,35.758 27.651,67.435 57.682,88.698 29.222,20.689 65.052,30.788 100.487,33.167 37.115,2.492 76.078,-2.932 109.798,-19.132 33.565,-16.126 59.096,-43.918 70.596,-79.501 C 6.393,172.391 4.377,133.61 -8.874,99.523 -22.748,63.838 -47.557,33.298 -77.052,9.249 c -30.861,-25.164 -68.276,-46.583 -108.311,-51.688 -35.328,-4.505 -73.881,6.342 -96.752,34.95 -4.933,6.171 -8.813,12.974 -11.736,20.307 -0.715,1.793 2.185,2.572 2.893,0.797 13.176,-33.054 48.615,-52.32 83.037,-54.003 40.84,-1.997 80.003,16.718 112.695,39.626 59.351,41.588 104.572,109.559 92.812,184.644 -5.651,36.081 -24.609,68.498 -55.021,89.135 -30.553,20.733 -68.273,29.354 -104.783,30.385 -34.452,0.973 -69.825,-5.114 -100.831,-20.56 -31.954,-15.919 -57.236,-42.09 -70.265,-75.515 -13.134,-33.693 -13.966,-70.921 -9.603,-106.422 2.289,-18.628 6.083,-37.059 10.783,-55.221 4.199,-16.219 9.007,-33.091 19.169,-46.709 5.087,-6.816 11.572,-12.224 19.363,-15.673 1.763,-0.78 0.239,-3.365 -1.513,-2.59 l 0,0 z"
               id="XMLID_2805_-1"
               inkscape:connector-curvature="0"
               style="fill:#d60523" />
          </g>
        </g>
      </g>
    </g>
  </g>
</svg>
